<mxfile host="app.diagrams.net" modified="2021-02-25T15:01:51.945Z" agent="5.0 (iPad; CPU OS 12_4 like Mac OS X) AppleWebKit/605.1.15 (KHTML, like Gecko) CriOS/78.0.3904.84 Mobile/15E148 Safari/605.1" etag="sRyE0O2izTzXP-a9EP4o" version="14.4.3" type="github" pages="2">
  <diagram id="V2PbeyJgyCH7MOxcKQXa" name="Page-1">
    <mxGraphModel dx="1049" dy="1137" grid="1" gridSize="10" guides="1" tooltips="1" connect="1" arrows="1" fold="1" page="1" pageScale="1" pageWidth="827" pageHeight="1169" math="0" shadow="0">
      <root>
        <mxCell id="0" />
        <mxCell id="1" parent="0" />
        <mxCell id="NMLSjQ5piVOGuQs0cdja-1" value="" style="rounded=0;whiteSpace=wrap;html=1;" vertex="1" parent="1">
          <mxGeometry x="230" y="130" width="500" height="320" as="geometry" />
        </mxCell>
        <mxCell id="NMLSjQ5piVOGuQs0cdja-2" value="方法区" style="rounded=0;whiteSpace=wrap;html=1;" vertex="1" parent="1">
          <mxGeometry x="250" y="160" width="120" height="60" as="geometry" />
        </mxCell>
        <mxCell id="NMLSjQ5piVOGuQs0cdja-3" value="堆" style="rounded=0;whiteSpace=wrap;html=1;" vertex="1" parent="1">
          <mxGeometry x="250" y="270" width="120" height="60" as="geometry" />
        </mxCell>
        <mxCell id="NMLSjQ5piVOGuQs0cdja-4" value="" style="rounded=0;whiteSpace=wrap;html=1;" vertex="1" parent="1">
          <mxGeometry x="400" y="160" width="120" height="60" as="geometry" />
        </mxCell>
        <mxCell id="NMLSjQ5piVOGuQs0cdja-5" value="" style="rounded=0;whiteSpace=wrap;html=1;" vertex="1" parent="1">
          <mxGeometry x="400" y="270" width="120" height="60" as="geometry" />
        </mxCell>
        <mxCell id="NMLSjQ5piVOGuQs0cdja-7" value="" style="rounded=0;whiteSpace=wrap;html=1;" vertex="1" parent="1">
          <mxGeometry x="550" y="270" width="120" height="60" as="geometry" />
        </mxCell>
      </root>
    </mxGraphModel>
  </diagram>
  <diagram id="oDsIwrKWRQepbkexACYM" name="Page-2">
    <mxGraphModel dx="734" dy="796" grid="1" gridSize="10" guides="1" tooltips="1" connect="1" arrows="1" fold="1" page="1" pageScale="1" pageWidth="827" pageHeight="1169" math="0" shadow="0">
      <root>
        <mxCell id="8ESGN3mb2q4E8taJis4--0" />
        <mxCell id="8ESGN3mb2q4E8taJis4--1" parent="8ESGN3mb2q4E8taJis4--0" />
      </root>
    </mxGraphModel>
  </diagram>
</mxfile>
